<svg width="1039" height="1039" viewBox="0 0 1039 1039" fill="none" xmlns="http://www.w3.org/2000/svg">
<path d="M486.075 276.523C502.811 252.521 538.346 252.56 555.03 276.597L844.361 693.459C849.843 701.358 844.274 712.175 834.66 712.3L517.627 716.45L203.797 714.206C194.138 714.137 188.515 703.266 194.039 695.343L486.075 276.523Z" fill="white"/>
<path d="M380.594 635.143V617.269V614.29L401.223 581.521H634.033L654.662 614.29V635.143H380.594Z" fill="#1976D2"/>
<path d="M654.662 614.29V635.143H380.594V617.269V614.29M654.662 614.29H380.594M654.662 614.29L634.033 581.521H401.223L380.594 614.29" stroke="white" stroke-width="1.5"/>
<path d="M336 716V703V699.333L363.548 659H674.452L702 699.333V716H336Z" fill="#1976D2"/>
<path d="M702 699.333V716H336V703V699.333M702 699.333H336M702 699.333L674.452 659H363.548L336 699.333" stroke="white" stroke-width="1.5"/>
<path d="M410.383 557.688V545.772V543.786L426.527 521.94H608.727L624.871 543.786V557.688H410.383Z" fill="#1976D2"/>
<path d="M624.871 543.786V557.688H410.383V545.772V543.786M624.871 543.786H410.383M624.871 543.786L608.727 521.94H426.527L410.383 543.786" stroke="white" stroke-width="1.5"/>
<path d="M440.172 498.109V490.165V488.841L451.832 474.277H583.42L595.08 488.841V498.109H440.172Z" fill="#1976D2"/>
<path d="M595.08 488.841V498.109H440.172V490.165V488.841M595.08 488.841H440.172M595.08 488.841L583.42 474.277H451.832L440.172 488.841" stroke="white" stroke-width="1.5"/>
<path d="M422.299 715.578H359.74L475.921 447.468H496.774L422.299 715.578Z" fill="#1976D2" stroke="white" stroke-width="1.5"/>
<path d="M405.145 715.578H382.029L483.315 447.468H488.557L405.145 715.578Z" fill="white" stroke="white" stroke-width="1.5"/>
<path d="M615.937 715.575H678.496L562.315 447.465H541.462L615.937 715.575Z" fill="#1976D2" stroke="white" stroke-width="1.5"/>
<path d="M633.092 715.575H656.207L554.921 447.465H549.68L633.092 715.575Z" fill="white" stroke="white" stroke-width="1.5"/>
<path d="M172.68 770.46C174.36 771.46 175.92 772.7 177.36 774.18C179.16 776.1 180.54 778.24 181.5 780.6C182.46 782.92 183.4 785.78 184.32 789.18C184.96 791.78 185.56 793.72 186.12 795H171.48C171.36 794.64 171.12 793.48 170.76 791.52C170.44 789.64 170.1 788.08 169.74 786.84C169.42 785.6 168.94 784.52 168.3 783.6C167.42 782.28 166.48 781.24 165.48 780.48C164.48 779.72 163.3 779.16 161.94 778.8C162.02 784.2 162.14 789.6 162.3 795H150.42C150.62 789.64 150.74 784.3 150.78 778.98C149.58 779.34 148.52 779.9 147.6 780.66C146.72 781.42 145.86 782.4 145.02 783.6C144.38 784.52 143.88 785.6 143.52 786.84C143.2 788.08 142.88 789.64 142.56 791.52C142.2 793.48 141.96 794.64 141.84 795H127.2C127.76 793.72 128.36 791.78 129 789.18C129.92 785.78 130.86 782.92 131.82 780.6C132.78 778.24 134.16 776.1 135.96 774.18C137.4 772.7 138.96 771.46 140.64 770.46L126 751.44H142.08C143.16 753.84 144.46 756.42 145.98 759.18C147.5 761.9 149.08 764.46 150.72 766.86C150.72 762.3 150.62 757.16 150.42 751.44H162.3C162.14 756.72 162.02 762 161.94 767.28C162.1 767.28 162.2 767.3 162.24 767.34C163.92 764.9 165.56 762.28 167.16 759.48C168.76 756.64 170.12 753.96 171.24 751.44H187.32L172.68 770.46ZM204.669 784.02C219.869 783.94 230.889 783.72 237.729 783.36C237.449 785 237.269 786.7 237.189 788.46C237.149 790.18 237.129 792.36 237.129 795H190.509C190.829 787.24 190.989 779.98 190.989 773.22C190.989 766.46 190.829 759.2 190.509 751.44H237.129V762.3H204.669V768.06C206.589 768.1 209.429 768.12 213.189 768.12C219.549 768.12 226.129 768 232.929 767.76V778.08C226.129 777.84 219.549 777.72 213.189 777.72C209.429 777.72 206.589 777.74 204.669 777.78V784.02ZM292.041 795H276.861V763.2H263.421L263.361 766.68C263.361 769.72 263.281 772.4 263.121 774.72C263.001 777 262.721 779.34 262.281 781.74C261.481 786.1 259.441 789.6 256.161 792.24C252.921 794.88 248.381 796.2 242.541 796.2V784.5C244.101 784.18 245.321 783.48 246.201 782.4C247.121 781.28 247.821 779.5 248.301 777.06C248.661 775.1 248.841 770.64 248.841 763.68L248.781 751.44L292.041 751.5V795ZM347.197 784.32H349.657V804.9H335.437V796.2H308.677V805.08H294.457V784.32H297.457C299.177 784 300.497 783.3 301.417 782.22C302.337 781.14 303.017 779.42 303.457 777.06C303.817 775.1 303.997 770.64 303.997 763.68L303.937 751.44L347.197 751.5V784.32ZM317.437 781.74C317.197 782.86 316.977 783.72 316.777 784.32H332.017V763.2H318.577L318.517 766.68C318.517 769.72 318.437 772.4 318.277 774.72C318.157 777 317.877 779.34 317.437 781.74ZM381.155 795.6C371.995 795.6 365.255 793.62 360.935 789.66C356.615 785.66 354.455 780.06 354.455 772.86C354.455 765.74 356.595 760.18 360.875 756.18C365.195 752.18 371.955 750.18 381.155 750.18C390.395 750.18 397.155 752.18 401.435 756.18C405.755 760.18 407.915 765.74 407.915 772.86C407.915 780.1 405.775 785.7 401.495 789.66C397.215 793.62 390.435 795.6 381.155 795.6ZM381.155 783.36C385.595 783.36 388.795 782.52 390.755 780.84C392.715 779.12 393.695 776.46 393.695 772.86C393.695 769.34 392.715 766.72 390.755 765C388.795 763.28 385.595 762.42 381.155 762.42C376.755 762.42 373.575 763.28 371.615 765C369.655 766.72 368.675 769.34 368.675 772.86C368.675 776.42 369.655 779.06 371.615 780.78C373.575 782.5 376.755 783.36 381.155 783.36ZM439.937 751.5C447.897 751.5 453.437 752.92 456.557 755.76C459.677 758.56 461.237 762.52 461.237 767.64C461.237 771.16 460.617 774.16 459.377 776.64C458.137 779.08 455.957 781 452.837 782.4C449.717 783.76 445.417 784.44 439.937 784.44H427.457V795H412.697C413.017 787.24 413.177 779.98 413.177 773.22C413.177 766.46 413.017 759.2 412.697 751.44H427.457V751.5H439.937ZM435.737 772.86C439.057 772.86 441.537 772.74 443.177 772.5C444.857 772.22 446.017 771.74 446.657 771.06C447.337 770.38 447.677 769.38 447.677 768.06C447.677 766.74 447.357 765.76 446.717 765.12C446.117 764.44 444.977 763.98 443.297 763.74C441.657 763.5 439.137 763.38 435.737 763.38H427.457V772.86H435.737ZM504.657 774.18C507.017 776.1 508.817 778.24 510.057 780.6C511.337 782.92 512.577 785.78 513.777 789.18C514.777 791.94 515.577 793.88 516.177 795H498.537C498.297 794.32 497.977 793.14 497.577 791.46C497.177 789.62 496.737 788.08 496.257 786.84C495.817 785.6 495.177 784.52 494.337 783.6C492.977 782.16 491.277 781.24 489.237 780.84C487.237 780.4 484.477 780.18 480.957 780.18V795H466.017C466.337 787.24 466.497 779.98 466.497 773.22C466.497 766.46 466.337 759.2 466.017 751.44H480.957V767.1C481.357 767.14 481.957 767.16 482.757 767.16C488.997 761 493.637 755.76 496.677 751.44H516.117L497.457 770.04C500.097 771.08 502.497 772.46 504.657 774.18ZM547.678 795.6C538.518 795.6 531.778 793.62 527.458 789.66C523.138 785.66 520.978 780.06 520.978 772.86C520.978 765.74 523.118 760.18 527.398 756.18C531.718 752.18 538.478 750.18 547.678 750.18C556.918 750.18 563.678 752.18 567.958 756.18C572.278 760.18 574.438 765.74 574.438 772.86C574.438 780.1 572.298 785.7 568.018 789.66C563.738 793.62 556.958 795.6 547.678 795.6ZM547.678 783.36C552.118 783.36 555.318 782.52 557.278 780.84C559.238 779.12 560.218 776.46 560.218 772.86C560.218 769.34 559.238 766.72 557.278 765C555.318 763.28 552.118 762.42 547.678 762.42C543.278 762.42 540.098 763.28 538.138 765C536.178 766.72 535.198 769.34 535.198 772.86C535.198 776.42 536.178 779.06 538.138 780.78C540.098 782.5 543.278 783.36 547.678 783.36ZM635.32 751.44L640 795H624.46L623.5 763.92L617.5 795H601.78L595.66 764.16L594.76 795H579.22L583.9 751.44H604.3L609.52 779.82L614.08 751.44H635.32ZM693.267 751.44C692.987 758.2 692.847 765.46 692.847 773.22C692.847 780.98 692.987 788.24 693.267 795H679.167V763.56H658.887V795H644.787C645.107 787.24 645.267 779.98 645.267 773.22C645.267 766.46 645.107 759.2 644.787 751.44H693.267ZM747.548 795H732.368V763.2H718.928L718.868 766.68C718.868 769.72 718.788 772.4 718.628 774.72C718.508 777 718.228 779.34 717.788 781.74C716.988 786.1 714.948 789.6 711.668 792.24C708.428 794.88 703.888 796.2 698.048 796.2V784.5C699.608 784.18 700.828 783.48 701.708 782.4C702.628 781.28 703.328 779.5 703.808 777.06C704.168 775.1 704.348 770.64 704.348 763.68L704.288 751.44L747.548 751.5V795ZM766.525 784.02C781.725 783.94 792.745 783.72 799.585 783.36C799.305 785 799.125 786.7 799.045 788.46C799.005 790.18 798.985 792.36 798.985 795H752.365C752.685 787.24 752.845 779.98 752.845 773.22C752.845 766.46 752.685 759.2 752.365 751.44H798.985V762.3H766.525V768.06C768.445 768.1 771.285 768.12 775.045 768.12C781.405 768.12 787.985 768 794.785 767.76V778.08C787.985 777.84 781.405 777.72 775.045 777.72C771.285 777.72 768.445 777.74 766.525 777.78V784.02ZM843.036 774.18C845.396 776.1 847.196 778.24 848.436 780.6C849.716 782.92 850.956 785.78 852.156 789.18C853.156 791.94 853.956 793.88 854.556 795H836.916C836.676 794.32 836.356 793.14 835.956 791.46C835.556 789.62 835.116 788.08 834.636 786.84C834.196 785.6 833.556 784.52 832.716 783.6C831.356 782.16 829.656 781.24 827.616 780.84C825.616 780.4 822.856 780.18 819.336 780.18V795H804.396C804.716 787.24 804.876 779.98 804.876 773.22C804.876 766.46 804.716 759.2 804.396 751.44H819.336V767.1C819.736 767.14 820.336 767.16 821.136 767.16C827.376 761 832.016 755.76 835.056 751.44H854.496L835.836 770.04C838.476 771.08 840.876 772.46 843.036 774.18ZM910.897 764.04C904.617 763.84 898.517 763.72 892.597 763.68V795H877.597V763.68C871.637 763.72 865.557 763.84 859.357 764.04V751.44H910.897V764.04Z" fill="white"/>
</svg>
